<mxfile host="app.diagrams.net" modified="2023-08-22T11:35:15.741Z" agent="Mozilla/5.0 (Macintosh; Intel Mac OS X 10_15_7) AppleWebKit/537.36 (KHTML, like Gecko) Chrome/115.0.0.0 Safari/537.36" version="21.6.8" etag="rBifahW35MMohxctbEj6" type="github">
  <diagram name="Page-1" id="hb3dIM1blZmVYqt_U6IY">
    <mxGraphModel>
      <root>
        <mxCell id="0" />
        <mxCell id="1" parent="0" />
      </root>
    </mxGraphModel>
  </diagram>
</mxfile>
